<svg width="80" height="80" viewBox="0 0 80 80" fill="none" xmlns="http://www.w3.org/2000/svg">
<g clip-path="url(#clip0_52_2)">
<path d="M80 40C80 62.0914 62.0914 80 40 80C17.9086 80 0 62.0914 0 40C0 17.9086 17.9086 0 40 0C62.0914 0 80 17.9086 80 40Z" fill="#1D2633"/>
<path d="M69.7136 50.2134C71.0644 50.2134 72.0252 51.5262 71.5172 52.7778C66.4666 65.2234 54.2582 74.0001 39.9999 74.0001C25.7417 74.0001 13.5333 65.2234 8.48261 52.7778C7.97464 51.5262 8.93546 50.2134 10.2863 50.2134H69.7136Z" fill="#EDEBDE"/>
<path d="M71.5172 27.2222C72.0252 28.4739 71.0644 29.7867 69.7136 29.7867H10.2863C8.93552 29.7867 7.97471 28.4739 8.48267 27.2222C13.5333 14.7767 25.7417 6 39.9999 6C54.2582 6 66.4665 14.7767 71.5172 27.2222Z" fill="#EDEBDE"/>
<path d="M33.9999 6.52774C35.9476 6.18095 37.9526 6 40 6C42.0473 6 44.0523 6.18095 45.9999 6.52773V29.7867H33.9999V6.52774Z" fill="#AC2828"/>
<path d="M46.0004 50.2134H33.9993C33.9741 55.4313 33.0234 60.6039 31.1909 65.4907L28.7185 72.0837C32.2486 73.325 36.0454 74.0001 39.9999 74.0001C43.9543 74.0001 47.7511 73.325 51.2812 72.0837L48.8088 65.4907C46.9763 60.6039 46.0256 55.4313 46.0004 50.2134Z" fill="#AC2828"/>
<path d="M46 6.52783C50.3408 7.30072 54.3967 8.89734 58 11.1503V29.7868H46V6.52783Z" fill="#306A9F"/>
<path d="M51.2813 72.0837C56.7387 70.1648 61.5589 66.8929 65.3391 62.6705L64.7492 62.2951C60.6056 59.6582 58.073 55.1148 58.0015 50.2134H46.0005C46.0257 55.4313 46.9764 60.6039 48.809 65.4907L51.2813 72.0837Z" fill="#306A9F"/>
<path d="M21.9999 11.1503C25.6032 8.89735 29.659 7.30072 33.9999 6.52783V29.7868H21.9999V11.1503Z" fill="#DEB038"/>
<path d="M21.9983 50.2134H33.9993C33.9742 55.409 33.0315 60.5597 31.2143 65.4281L28.7185 72.0837C23.261 70.1648 18.4409 66.8929 14.6606 62.6705L15.2505 62.2951C19.3941 59.6582 21.9268 55.1148 21.9983 50.2134Z" fill="#DEB038"/>
<path d="M10.0137 36.7969L9.9209 37.5947C9.40137 37.5205 8.95605 37.4834 8.58496 37.4834C7.73145 37.4834 7.02637 37.7432 6.46973 38.2627C5.91309 38.7699 5.52962 39.376 5.31934 40.0811C5.12142 40.7738 5.02246 41.5469 5.02246 42.4004C5.02246 42.7962 5.0472 43.1488 5.09668 43.458C5.14616 43.7673 5.23275 44.0703 5.35645 44.3672C5.49251 44.6641 5.69661 44.8991 5.96875 45.0723C6.25326 45.2331 6.59961 45.3135 7.00781 45.3135C7.55208 45.3135 8.24479 45.2083 9.08594 44.998C9.3457 44.8991 9.5498 44.8496 9.69824 44.8496C9.99512 44.8496 10.1745 45.196 10.2363 45.8887C9.14779 46.235 8.13965 46.4082 7.21191 46.4082C5.86361 46.4082 4.94824 46.0804 4.46582 45.4248C3.99577 44.7568 3.76074 43.6807 3.76074 42.1963C3.76074 41.3304 3.81641 40.5758 3.92773 39.9326C4.05143 39.277 4.26172 38.6709 4.55859 38.1143C4.85547 37.5452 5.28223 37.1123 5.83887 36.8154C6.40788 36.5186 7.10059 36.3701 7.91699 36.3701C8.83236 36.3701 9.53125 36.5124 10.0137 36.7969ZM11.2754 32.6406L12.2402 32.8633C12.2773 33.3704 12.3021 34.1807 12.3145 35.2939C12.3392 36.4072 12.3639 37.1742 12.3887 37.5947C13.0566 36.8896 13.8607 36.5371 14.8008 36.5371C15.6419 36.5371 16.3656 36.834 16.9717 37.4277C17.5902 38.0215 17.8994 38.8132 17.8994 39.8027V45.9072C17.7386 45.9814 17.5345 46.0186 17.2871 46.0186C17.015 46.0186 16.7676 45.9938 16.5449 45.9443C16.5449 45.8454 16.5449 45.6969 16.5449 45.499C16.5573 45.2887 16.5635 45.1341 16.5635 45.0352C16.5635 44.5527 16.5449 43.724 16.5078 42.5488C16.4707 41.3613 16.4521 40.3717 16.4521 39.5801C16.2666 38.4421 15.6914 37.873 14.7266 37.873C14.306 37.873 13.8916 37.9906 13.4834 38.2256C13.0752 38.4482 12.7783 38.7142 12.5928 39.0234C12.6299 39.8027 12.6546 40.9779 12.667 42.5488C12.6794 44.1198 12.6979 45.2516 12.7227 45.9443C12.4258 45.9938 12.1722 46.0186 11.9619 46.0186C11.6527 46.0186 11.3929 45.9814 11.1826 45.9072C11.2074 45.3011 11.2197 44.3424 11.2197 43.0312C11.2197 42.4499 11.2135 41.3861 11.2012 39.8398C11.1888 38.2812 11.1826 36.9453 11.1826 35.832C11.195 34.7064 11.2259 33.6426 11.2754 32.6406ZM20.0889 37.9844L19.7178 37.0381C20.0394 36.7165 20.4476 36.4629 20.9424 36.2773C21.4372 36.0794 21.9258 35.9805 22.4082 35.9805C24.4987 35.9805 25.5439 37.7865 25.5439 41.3984C25.5439 41.8932 25.513 42.623 25.4512 43.5879C25.4017 44.5527 25.377 45.2764 25.377 45.7588C25.278 46.1423 25.0863 46.334 24.8018 46.334C24.5791 46.334 24.375 46.2227 24.1895 46C24.0039 45.7773 23.9111 45.5299 23.9111 45.2578C23.9111 45.1712 23.9173 45.1094 23.9297 45.0723C23.1628 45.8145 22.3464 46.1855 21.4805 46.1855C20.8249 46.1855 20.2497 45.9505 19.7549 45.4805C19.2725 44.998 19.0312 44.4167 19.0312 43.7363C19.0312 42.5859 19.4766 41.5469 20.3672 40.6191C21.2702 39.6914 22.2907 39.2275 23.4287 39.2275C23.4782 39.2275 23.5277 39.2337 23.5771 39.2461C23.6266 39.2461 23.6823 39.2523 23.7441 39.2646C23.8184 39.277 23.874 39.2832 23.9111 39.2832C23.8122 37.8359 23.237 37.1123 22.1855 37.1123C21.5671 37.1123 20.8682 37.403 20.0889 37.9844ZM23.9668 43.792C23.9915 42.9261 24.0039 42.2705 24.0039 41.8252C24.0039 41.4541 23.9915 40.9346 23.9668 40.2666H23.8184C22.9401 40.279 22.1361 40.6068 21.4062 41.25C20.6888 41.8932 20.3301 42.6725 20.3301 43.5879C20.3301 43.9837 20.4476 44.2992 20.6826 44.5342C20.93 44.7692 21.2269 44.8867 21.5732 44.8867C22.1175 44.8867 22.9154 44.5218 23.9668 43.792ZM27.4551 33.2715L28.3086 33.457L28.7168 45.4619C28.6055 45.8454 28.389 46.0371 28.0674 46.0371C27.8447 46.0371 27.6283 45.9505 27.418 45.7773C27.2201 45.5918 27.0964 45.3691 27.0469 45.1094L27.4551 33.2715ZM37.0107 46L35.3037 45.9629C34.846 45.5052 34.2152 44.7692 33.4111 43.7549C32.6195 42.7282 32.1185 42.0973 31.9082 41.8623V45.6846C31.7969 46.0557 31.5804 46.2412 31.2588 46.2412C31.0361 46.2412 30.8197 46.1546 30.6094 45.9814C30.4115 45.7959 30.2878 45.5732 30.2383 45.3135C30.2754 44.0394 30.2939 41.9242 30.2939 38.9678C30.2939 36.0114 30.3187 33.89 30.3682 32.6035L31.5 32.8447C31.5124 33.3395 31.5309 34.3538 31.5557 35.8877C31.5928 37.4215 31.6237 38.5658 31.6484 39.3203L36.1572 36.0176L36.4727 36.8525C35.2975 37.7061 33.9183 38.9121 32.335 40.4707C32.6689 40.8294 33.4049 41.7077 34.543 43.1055C35.6934 44.4909 36.516 45.4557 37.0107 46ZM39.0146 46.3525L37.9756 46.5566L37.7529 31.8984C38.0993 31.7253 38.5693 31.583 39.1631 31.4717C39.1507 31.7562 39.1445 32.2015 39.1445 32.8076C39.1445 34.1436 39.194 35.4671 39.293 36.7783C39.8867 36.4443 40.5176 36.2773 41.1855 36.2773C41.8783 36.2773 42.4658 36.4443 42.9482 36.7783C43.4307 37.0999 43.7894 37.5452 44.0244 38.1143C44.2594 38.6833 44.4264 39.2585 44.5254 39.8398C44.6243 40.4212 44.6738 41.0521 44.6738 41.7324C44.6738 42.4746 44.5563 43.1921 44.3213 43.8848C44.0986 44.5651 43.7028 45.165 43.1338 45.6846C42.5771 46.1917 41.8968 46.4453 41.0928 46.4453C40.4001 46.4453 39.7135 46.2288 39.0332 45.7959C39.0208 45.9196 39.0146 46.1051 39.0146 46.3525ZM39.2373 38.5967L39.1816 44.5713C39.2559 44.7939 39.4847 44.9733 39.8682 45.1094C40.264 45.2331 40.6908 45.2949 41.1484 45.2949C41.5814 45.2949 41.9401 45.2145 42.2246 45.0537C42.5215 44.8805 42.7441 44.6393 42.8926 44.3301C43.041 44.0085 43.14 43.6745 43.1895 43.3281C43.2513 42.9818 43.2822 42.5859 43.2822 42.1406C43.2822 41.6829 43.2575 41.2376 43.208 40.8047C43.1585 40.3594 43.0596 39.877 42.9111 39.3574C42.7627 38.8255 42.5215 38.3988 42.1875 38.0771C41.8535 37.7555 41.4391 37.5947 40.9443 37.5947C40.5856 37.5947 40.2454 37.6875 39.9238 37.873C39.6146 38.0462 39.3857 38.2874 39.2373 38.5967ZM46.1768 42.0479C46.1768 41.5531 46.2262 41.0026 46.3252 40.3965C46.4365 39.7904 46.5973 39.1533 46.8076 38.4854C47.0179 37.8174 47.3333 37.2607 47.7539 36.8154C48.1745 36.3701 48.6631 36.1475 49.2197 36.1475C50.4072 36.1475 51.3597 36.6855 52.0771 37.7617C52.7946 38.8255 53.1533 40.013 53.1533 41.3242C53.1533 41.8809 53.0915 42.4375 52.9678 42.9941C52.8564 43.5384 52.6771 44.0765 52.4297 44.6084C52.1823 45.1403 51.8236 45.5856 51.3535 45.9443C50.8958 46.2907 50.3577 46.4886 49.7393 46.5381C48.6012 46.3896 47.723 45.9072 47.1045 45.0908C46.486 44.262 46.1768 43.2477 46.1768 42.0479ZM49.3311 37.1123C48.8981 37.1618 48.5332 37.5576 48.2363 38.2998C47.9395 39.042 47.7477 39.7656 47.6611 40.4707C47.5745 41.1634 47.5312 41.7757 47.5312 42.3076C47.5312 43.0003 47.7415 43.6436 48.1621 44.2373C48.5951 44.8187 49.0775 45.1094 49.6094 45.1094C49.9928 45.1094 50.3392 44.9609 50.6484 44.6641C50.9577 44.3672 51.1989 44.0023 51.3721 43.5693C51.5576 43.124 51.6937 42.6787 51.7803 42.2334C51.8792 41.7881 51.9287 41.3923 51.9287 41.0459C51.9287 40.0316 51.6999 39.1471 51.2422 38.3926C50.7845 37.638 50.1475 37.2113 49.3311 37.1123ZM55.3242 37.9844L54.9531 37.0381C55.2747 36.7165 55.6829 36.4629 56.1777 36.2773C56.6725 36.0794 57.1611 35.9805 57.6436 35.9805C59.734 35.9805 60.7793 37.7865 60.7793 41.3984C60.7793 41.8932 60.7484 42.623 60.6865 43.5879C60.637 44.5527 60.6123 45.2764 60.6123 45.7588C60.5133 46.1423 60.3216 46.334 60.0371 46.334C59.8145 46.334 59.6104 46.2227 59.4248 46C59.2393 45.7773 59.1465 45.5299 59.1465 45.2578C59.1465 45.1712 59.1527 45.1094 59.165 45.0723C58.3981 45.8145 57.5817 46.1855 56.7158 46.1855C56.0602 46.1855 55.485 45.9505 54.9902 45.4805C54.5078 44.998 54.2666 44.4167 54.2666 43.7363C54.2666 42.5859 54.7119 41.5469 55.6025 40.6191C56.5055 39.6914 57.526 39.2275 58.6641 39.2275C58.7135 39.2275 58.763 39.2337 58.8125 39.2461C58.862 39.2461 58.9176 39.2523 58.9795 39.2646C59.0537 39.277 59.1094 39.2832 59.1465 39.2832C59.0475 37.8359 58.4723 37.1123 57.4209 37.1123C56.8024 37.1123 56.1035 37.403 55.3242 37.9844ZM59.2021 43.792C59.2269 42.9261 59.2393 42.2705 59.2393 41.8252C59.2393 41.4541 59.2269 40.9346 59.2021 40.2666H59.0537C58.1755 40.279 57.3714 40.6068 56.6416 41.25C55.9242 41.8932 55.5654 42.6725 55.5654 43.5879C55.5654 43.9837 55.6829 44.2992 55.918 44.5342C56.1654 44.7692 56.4622 44.8867 56.8086 44.8867C57.3529 44.8867 58.1507 44.5218 59.2021 43.792ZM68.4053 38.9307L67.5889 38.875C67.3291 38.1823 66.89 37.8359 66.2715 37.8359C65.9993 37.8359 65.7087 37.8978 65.3994 38.0215C65.1025 38.1452 64.8551 38.2751 64.6572 38.4111C64.4593 38.5348 64.1995 38.7204 63.8779 38.9678C63.8779 39.141 63.8717 39.7038 63.8594 40.6562C63.8594 41.6087 63.8656 42.6663 63.8779 43.8291C63.9027 44.9919 63.9274 45.6165 63.9521 45.7031C63.8408 46.0742 63.6243 46.2598 63.3027 46.2598C63.0801 46.2598 62.8636 46.1732 62.6533 46C62.4554 45.8145 62.3317 45.5918 62.2822 45.332C62.5173 41.3613 62.7275 38.3617 62.9131 36.333L63.748 36.5186L63.8037 37.7617C64.6696 37.0443 65.4118 36.6855 66.0303 36.6855C66.7106 36.6855 67.2796 36.8402 67.7373 37.1494C68.2074 37.4587 68.4424 37.9102 68.4424 38.5039C68.4424 38.6895 68.43 38.8317 68.4053 38.9307ZM75.8643 46.4824L74.8438 46.2783C74.8438 46.0309 74.8376 45.8454 74.8252 45.7217C74.1696 46.1423 73.4769 46.3525 72.7471 46.3525C71.6214 46.3525 70.7432 45.8701 70.1123 44.9053C69.4938 43.9404 69.1846 42.8457 69.1846 41.6211C69.1846 40.9902 69.2279 40.3965 69.3145 39.8398C69.4134 39.2832 69.5742 38.7142 69.7969 38.1328C70.0319 37.5391 70.3906 37.069 70.873 36.7227C71.3678 36.3763 71.9616 36.2031 72.6543 36.2031C73.3346 36.2031 73.9717 36.3701 74.5654 36.7041C74.6644 35.3929 74.7139 34.0693 74.7139 32.7334C74.7139 32.1273 74.7077 31.682 74.6953 31.3975C75.2891 31.5088 75.7591 31.651 76.1055 31.8242L75.8643 46.4824ZM74.6768 44.4971L74.6211 38.5225C74.4727 38.2132 74.2376 37.972 73.916 37.7988C73.6068 37.6133 73.2728 37.5205 72.9141 37.5205C72.4316 37.5205 72.0173 37.6751 71.6709 37.9844C71.3369 38.2936 71.0957 38.708 70.9473 39.2275C70.8112 39.7347 70.7122 40.2109 70.6504 40.6562C70.6009 41.1016 70.5762 41.5716 70.5762 42.0664C70.5762 44.1693 71.2812 45.2207 72.6914 45.2207C73.1615 45.2207 73.5882 45.1589 73.9717 45.0352C74.3675 44.8991 74.6025 44.7197 74.6768 44.4971Z" fill="white"/>
</g>
<defs>
<clipPath id="clip0_52_2">
<rect width="80" height="80" fill="white"/>
</clipPath>
</defs>
</svg>
